<?xml version="1.0" encoding="UTF-8"?>
<svg version="1.1" xmlns="http://www.w3.org/2000/svg" width="500" height="500">
<path d="M0 0 C165 0 330 0 500 0 C500 165 500 330 500 500 C335 500 170 500 0 500 C0 335 0 170 0 0 Z " fill="#FEFEFE" transform="translate(0,0)"/>
<path d="M0 0 C2.65665469 2.65665469 3.07126649 5.52326829 3.9375 9.0625 C5.18464025 13.94353899 6.50652827 18.75083702 8.15625 23.51171875 C9.3074001 26.90654565 10.37147435 30.32774944 11.4375 33.75 C11.7622229 34.78991089 11.7622229 34.78991089 12.09350586 35.85083008 C13.0871817 39.04003511 14.06993718 42.2317164 15.03515625 45.4296875 C18.47914234 56.83527705 21.88798294 67.64607813 28.13671875 77.85546875 C30.13322907 81.22484152 31.90124974 84.67432004 33.625 88.1875 C37.21877108 95.48683624 40.93426536 102.71888786 44.6875 109.9375 C45.23422363 110.99155029 45.78094727 112.04560059 46.34423828 113.1315918 C46.87388184 114.14906494 47.40352539 115.16653809 47.94921875 116.21484375 C48.4601709 117.1982373 48.97112305 118.18163086 49.49755859 119.19482422 C51.26207141 122.48930784 53.15952163 125.69297048 55.12817383 128.86938477 C56.73842303 132.80459752 56.43749637 135.93049248 54.84521484 139.82299805 C54.30590332 140.79277588 53.7665918 141.76255371 53.2109375 142.76171875 C52.30311523 144.42050049 52.30311523 144.42050049 51.37695312 146.11279297 C51.05090088 146.69494568 50.72484863 147.27709839 50.38891602 147.87689209 C49.00614744 150.34618115 47.65107122 152.83029576 46.29412842 155.31384277 C45.58885838 156.60407569 44.88217688 157.89353801 44.1741333 159.18225098 C38.73650638 169.09067768 33.60345054 179.15869204 28.44189453 189.21289062 C27.23028752 191.55486585 25.99779033 193.88245277 24.74609375 196.203125 C20.89643061 203.48672093 18.41560142 210.6543665 16.25390625 218.55859375 C14.97481342 223.20730643 13.4383973 227.75299159 11.875 232.3125 C9.82894119 238.31726571 8.09472016 244.30056431 6.640625 250.48046875 C5.90944282 253.35615476 4.92150584 256.03713614 3.82421875 258.7890625 C2.31249615 262.84420464 1.11968124 267.0035345 -0.1328125 271.14453125 C-0.72812845 273.10478332 -1.35215825 275.05647476 -2 277 C-4.54663086 278.1315918 -4.54663086 278.1315918 -7.96484375 279.19921875 C-8.58096024 279.39524185 -9.19707672 279.59126495 -9.8318634 279.79322815 C-11.86359473 280.43636988 -13.900285 281.06196756 -15.9375 281.6875 C-17.35025101 282.13082985 -18.76268353 282.5751758 -20.17480469 283.02050781 C-23.7637515 284.14874249 -27.35709418 285.26210899 -30.95257568 286.36932373 C-34.02813341 287.31670003 -37.10172228 288.27042978 -40.17578125 289.22265625 C-42.36703786 289.89892255 -44.55843939 290.5747195 -46.75 291.25 C-47.81049561 291.57701904 -48.87099121 291.90403809 -49.96362305 292.2409668 C-54.74753836 293.71147692 -59.53459171 295.16100229 -64.34375 296.546875 C-73.15421463 299.12802215 -80.73809638 302.15819825 -88.578125 306.9453125 C-92.12495927 309.07503262 -95.72471816 310.93404161 -99.4375 312.75 C-106.25077362 316.10700706 -113.01105644 319.55857464 -119.75 323.0625 C-120.74112793 323.57611084 -121.73225586 324.08972168 -122.75341797 324.61889648 C-128.88661131 327.82112417 -134.82259058 331.17086496 -140.59765625 334.98828125 C-143.92797232 336.3908046 -145.53535888 336.027184 -149 335 C-151.88568042 333.63461656 -154.62221397 332.05128407 -157.375 330.4375 C-158.9945678 329.51294681 -160.61569011 328.59111188 -162.23828125 327.671875 C-163.44798584 326.98641602 -163.44798584 326.98641602 -164.68212891 326.28710938 C-167.92727625 324.48508527 -171.2300853 322.82103662 -174.5625 321.1875 C-182.83028536 317.12896335 -190.98405027 312.8586125 -199.13305664 308.56713867 C-207.91294273 303.96887939 -216.56544945 300.01961279 -226 297 C-227.8409817 296.38834486 -229.68190521 295.77650769 -231.52172852 295.16137695 C-233.48897539 294.50368575 -235.45735816 293.84947347 -237.42578125 293.1953125 C-239.46811301 292.51230319 -241.50856085 291.82344892 -243.54296875 291.1171875 C-248.72515626 289.32371641 -253.96291608 287.98103814 -259.2890625 286.6796875 C-262.26282839 285.93410354 -265.11673943 285.04288148 -268 284 C-269.38638672 283.49919922 -269.38638672 283.49919922 -270.80078125 282.98828125 C-273.53593871 281.99778586 -276.26872544 281.00114334 -279 280 C-273.68520087 273.55070225 -267.82573145 267.6885104 -261.91433716 261.79408264 C-260.782875 260.66218396 -259.6516328 259.53006537 -258.52059066 258.39774698 C-255.4237581 255.2986853 -252.32382781 252.20273874 -249.22337008 249.10730445 C-245.87602708 245.76428855 -242.53158341 242.41837427 -239.18678284 239.07281494 C-233.39519983 233.28070813 -227.60179183 227.49043195 -221.80713272 221.70140266 C-213.42907779 213.33148217 -205.05379256 204.95879471 -196.67917608 196.58543401 C-183.09113321 182.99957861 -169.50085968 169.41595688 -155.90917969 155.83374023 C-142.70781141 142.64155398 -129.50749606 129.4483156 -116.30859375 116.25366211 C-115.4947203 115.44005138 -114.68084685 114.62644065 -113.84231056 113.78817505 C-109.75926571 109.70643526 -105.67624153 105.62467478 -101.59322762 101.54290402 C-67.7320231 67.69206259 -33.86719675 33.84484624 0 0 Z " fill="#FEFEFE" transform="translate(395,116)"/>
<path d="M0 0 C1.87233997 0.91580936 3.72229654 1.87840268 5.55078125 2.87890625 C6.62626221 3.4625293 7.70174316 4.04615234 8.80981445 4.64746094 C9.96570068 5.27942383 11.12158691 5.91138672 12.3125 6.5625 C14.81031076 7.91683068 17.31096292 9.26584744 19.8125 10.61328125 C20.46603958 10.96546722 21.11957916 11.3176532 21.79292297 11.68051147 C29.75341145 15.95900915 37.77967444 20.10938794 45.8125 24.25 C46.52282379 24.61739288 47.23314758 24.98478577 47.96499634 25.36331177 C50.00262234 26.41679777 52.04200106 27.46680354 54.08203125 28.515625 C55.83350464 29.41716309 55.83350464 29.41716309 57.62036133 30.33691406 C65.53735196 34.23278491 73.6031361 36.8532965 82.02734375 39.44921875 C83.38507597 39.87058781 84.74270481 40.29229015 86.10023499 40.71430969 C89.65177913 41.81741754 93.20469847 42.91602824 96.75793457 44.01367188 C100.39220759 45.13723318 104.02514613 46.26509231 107.65820312 47.39257812 C114.77084463 49.59923336 121.88494614 51.8011339 129 54 C123.68520087 60.44929775 117.82573145 66.3114896 111.91433716 72.20591736 C110.782875 73.33781604 109.6516328 74.46993463 108.52059066 75.60225302 C105.4237581 78.7013147 102.32382781 81.79726126 99.22337008 84.89269555 C95.87602708 88.23571145 92.53158341 91.58162573 89.18678284 94.92718506 C83.39519983 100.71929187 77.60179183 106.50956805 71.80713272 112.29859734 C63.42907779 120.66851783 55.05379256 129.04120529 46.67917608 137.41456599 C33.09113321 151.00042139 19.50085968 164.58404312 5.90917969 178.16625977 C-7.29218859 191.35844602 -20.49250394 204.5516844 -33.69140625 217.74633789 C-34.5052797 218.55994862 -35.31915315 219.37355935 -36.15768944 220.21182495 C-40.24073429 224.29356474 -44.32375847 228.37532522 -48.40677238 232.45709598 C-82.2679769 266.30793741 -116.13280325 300.15515376 -150 334 C-151.82975197 330.46271066 -153.03423986 326.95790354 -154.20703125 323.14453125 C-154.42091995 322.45212845 -154.63480865 321.75972565 -154.85517883 321.04634094 C-156.38943041 316.05813873 -157.88019277 311.05719274 -159.36691284 306.05465698 C-160.50458839 302.23700112 -161.65607569 298.42357201 -162.80932617 294.6105957 C-163.39255779 292.66924674 -163.96911352 290.72587906 -164.53881836 288.78051758 C-168.38854297 275.66314222 -173.14158352 263.88929468 -179.88180542 251.99008179 C-181.39356956 249.29955338 -182.80784119 246.56289954 -184.21484375 243.81640625 C-189.4937152 233.6274805 -194.85782658 223.49813542 -200.43530273 213.46899414 C-201.26555627 211.97491566 -202.08983425 210.4774933 -202.90673828 208.97607422 C-203.87202994 207.23130631 -204.89848281 205.52067982 -205.93359375 203.81640625 C-207.34791703 200.08114221 -206.43568735 198.67192185 -205 195 C-204.09446909 193.0745342 -203.14668262 191.16853972 -202.1640625 189.28125 C-201.31847778 187.65219727 -201.31847778 187.65219727 -200.45581055 185.99023438 C-199.85164307 184.83845703 -199.24747559 183.68667969 -198.625 182.5 C-197.99436717 181.28980751 -197.36391702 180.07951981 -196.73364258 178.86914062 C-192.39269635 170.55460202 -187.95282148 162.29496353 -183.34814453 154.12304688 C-181.85482325 151.43648714 -180.41912836 148.72657702 -179 146 C-178.67230621 145.37578156 -178.34461243 144.75156311 -178.00698853 144.10842896 C-170.81258624 130.23562345 -166.21931577 115.89276201 -161.8125 100.9375 C-161.13490805 98.67079165 -160.45587678 96.40451304 -159.77539062 94.13867188 C-159.4426413 93.02972565 -159.10989197 91.92077942 -158.76705933 90.77822876 C-157.78955944 87.53136929 -156.80457349 84.28685049 -155.81884766 81.04248047 C-154.65113646 77.19907254 -153.53366032 73.34727327 -152.45849609 69.47705078 C-151.9772327 67.83987624 -151.49503981 66.20297452 -151.01171875 64.56640625 C-150.82261429 63.83268295 -150.63350983 63.09895966 -150.43867493 62.34300232 C-149.60720345 59.6262888 -148.80455542 57.4982938 -146.32568359 55.96302795 C-144.23798331 55.15363409 -142.16777022 54.55835615 -140 54 C-138.63981364 53.56667341 -137.28123612 53.12826429 -135.92431641 52.68481445 C-134.48419197 52.24171604 -133.04323572 51.80131425 -131.6015625 51.36328125 C-130.81796356 51.12322861 -130.03436462 50.88317596 -129.22702026 50.635849 C-127.55732309 50.12455146 -125.88732259 49.6142436 -124.21704102 49.1048584 C-121.58248136 48.29950252 -118.95021342 47.48700229 -116.31835938 46.67285156 C-108.81601039 44.35679234 -101.32008059 42.0535735 -93.7421875 39.99609375 C-75.83116913 35.05276223 -60.1907683 26.91239186 -44 18 C-42.97986816 17.44248047 -41.95973633 16.88496094 -40.90869141 16.31054688 C-37.4510909 14.42078215 -33.99613592 12.52676325 -30.55322266 10.61035156 C-23.80455268 6.85449447 -16.94271315 3.3826003 -10 0 C-9.34 -0.43183594 -8.68 -0.86367188 -8 -1.30859375 C-4.93287319 -2.36890907 -2.9820075 -1.13206468 0 0 Z " fill="#FEFEFE" transform="translate(255,50)"/>
<path d="M0 0 C-0.61511437 5.595417 -1.57259777 10.95669102 -2.890625 16.42578125 C-3.07552994 17.20686752 -3.26043488 17.9879538 -3.45094299 18.79270935 C-4.04615386 21.30039644 -4.64781359 23.80647971 -5.25 26.3125 C-5.66247807 28.04261354 -6.07483121 29.77275687 -6.48706055 31.50292969 C-8.67481676 40.65468295 -10.9226372 49.78379369 -13.38647461 58.86572266 C-15.53740444 66.84617742 -17.27185247 74.91922079 -19 83 C-22 83 -22 83 -24.54370117 80.796875 C-25.55118515 79.78891569 -26.55044193 78.77269078 -27.54296875 77.75 C-28.07142899 77.21729492 -28.59988922 76.68458984 -29.1443634 76.13574219 C-30.83256735 74.43072971 -32.51005145 72.71558873 -34.1875 71 C-35.32938778 69.84306822 -36.47195776 68.68680935 -37.61523438 67.53125 C-40.41813541 64.69525089 -43.2114652 61.85012324 -46 59 C-50.32883834 62.62931573 -54.46656422 66.34966784 -58.4375 70.375 C-59.30246094 71.24898438 -60.16742188 72.12296875 -61.05859375 73.0234375 C-61.69925781 73.67570312 -62.33992188 74.32796875 -63 75 C-62.81679199 75.60368408 -62.63358398 76.20736816 -62.44482422 76.8293457 C-60.86340973 82.06658276 -59.33598364 87.31539641 -57.85742188 92.58251953 C-55.52988127 100.8608056 -53.06772906 109.04743213 -50.28125 117.18359375 C-49.0387978 120.83232643 -47.90408706 124.51105546 -46.77050781 128.19482422 C-42.37074808 142.42852096 -36.43928691 155.21658085 -29.42089844 168.32714844 C-27.44396786 172.04595187 -25.50896754 175.78601817 -23.57177734 179.52563477 C-19.07876342 188.19405551 -14.51283222 196.81703078 -9.8125 205.375 C-9.10782593 206.6597522 -9.10782593 206.6597522 -8.38891602 207.97045898 C-6.50731091 211.7091519 -6.50731091 211.7091519 -4 215 C-3.75 217.375 -3.75 217.375 -4 220 C-4.65947632 220.65585083 -4.65947632 220.65585083 -5.33227539 221.32495117 C-7.46934677 223.47140802 -8.56430553 225.72446588 -9.93359375 228.42578125 C-10.77434448 230.06957764 -10.77434448 230.06957764 -11.63208008 231.74658203 C-12.22786865 232.92333496 -12.82365723 234.10008789 -13.4375 235.3125 C-14.69678871 237.7766609 -15.96113607 240.23820502 -17.2265625 242.69921875 C-17.54436172 243.3180896 -17.86216095 243.93696045 -18.18959045 244.57458496 C-21.14126686 250.30728361 -24.20859909 255.97336222 -27.3125 261.625 C-27.80387451 262.52814941 -28.29524902 263.43129883 -28.80151367 264.36181641 C-30.96879556 268.3393561 -33.15853503 272.29266854 -35.46484375 276.19140625 C-41.61527567 286.7908664 -44.86320731 297.75696219 -48.14533997 309.51747131 C-50.70933678 318.62675199 -53.5482119 327.65417804 -56.36074829 336.68908691 C-57.29976527 339.70904406 -58.23254373 342.7308782 -59.16479492 345.75292969 C-59.75143603 347.64268816 -60.33841683 349.53234122 -60.92578125 351.421875 C-61.19113678 352.28441895 -61.45649231 353.14696289 -61.72988892 354.03564453 C-63.22820195 358.82834928 -64.75642373 363.50000605 -67 368 C-69.9609375 369.48828125 -69.9609375 369.48828125 -73.375 370.3125 C-77.39724219 371.33424198 -81.17389019 372.38866852 -85 374 C-91.75100315 376.48721169 -98.67870177 378.26707109 -105.64453125 380.03515625 C-108.3726377 380.81960595 -110.50860974 381.71116391 -113 383 C-114.34401803 383.33533915 -115.69995006 383.62541141 -117.0625 383.875 C-121.54174141 384.8145482 -125.67827705 386.26022402 -129.94921875 387.890625 C-132.05355603 388.65583856 -134.18463239 389.34997346 -136.33203125 389.984375 C-146.94138169 393.15683515 -156.03202896 398.22362848 -165.63085938 403.67919922 C-168.93191984 405.51954723 -172.29397226 407.21300953 -175.6875 408.875 C-182.90446407 412.42469962 -190.05051837 416.10472483 -197.1875 419.8125 C-198.27571045 420.37630371 -199.3639209 420.94010742 -200.48510742 421.52099609 C-201.51482666 422.0567627 -202.5445459 422.5925293 -203.60546875 423.14453125 C-204.52481201 423.62253174 -205.44415527 424.10053223 -206.39135742 424.59301758 C-208.16984556 425.55225269 -209.91465128 426.5760176 -211.62451172 427.65283203 C-214.96670104 429.54822779 -217.20869636 429.43223331 -221 429 C-224.25390625 427.49609375 -224.25390625 427.49609375 -227.5625 425.4375 C-228.79756007 424.69082682 -230.03459472 423.94741141 -231.2734375 423.20703125 C-231.89573242 422.83271973 -232.51802734 422.4584082 -233.15917969 422.07275391 C-235.93660645 420.45418451 -238.80231179 419.04056658 -241.6875 417.625 C-247.19192424 414.91569542 -252.63768218 412.1153109 -258.0625 409.25 C-258.85422607 408.83298828 -259.64595215 408.41597656 -260.46166992 407.98632812 C-264.81478532 405.69105699 -269.15901241 403.38011432 -273.49609375 401.0546875 C-275.33070254 400.07807498 -277.16533735 399.10151134 -279 398.125 C-279.83539307 397.67286133 -280.67078613 397.22072266 -281.53149414 396.75488281 C-290.58556333 391.95159657 -300.01476502 388.87307748 -309.875 386.1875 C-317.30424379 384.11849482 -324.63436872 381.85215935 -331.9375 379.375 C-337.93897524 377.34918323 -343.9365469 375.3335781 -350 373.5 C-351.5778125 373.02046875 -351.5778125 373.02046875 -353.1875 372.53125 C-356.43202484 371.91839531 -357.86383608 371.94318372 -361 373 C-363.45110831 374.87741817 -365.56325733 377.05823275 -367.71801758 379.26391602 C-368.37223694 379.91755127 -369.0264563 380.57118652 -369.70050049 381.24462891 C-371.85812859 383.40504119 -374.0012475 385.57927035 -376.14453125 387.75390625 C-377.63866762 389.25550376 -379.13369023 390.7562199 -380.62956238 392.25608826 C-384.5626057 396.20439763 -388.48348883 400.16457194 -392.40197754 404.12731934 C-396.40330154 408.16957449 -400.4159853 412.20051765 -404.42773438 416.23242188 C-412.29632911 424.14390473 -420.15212644 432.06796591 -428 440 C-431.41059403 438.39464713 -433.61792484 436.59481099 -436.25 433.875 C-436.95640625 433.15054687 -437.6628125 432.42609375 -438.390625 431.6796875 C-438.92171875 431.12539063 -439.4528125 430.57109375 -440 430 C-438.73154183 427.21543067 -437.44425733 425.20486973 -435.24714661 423.08065796 C-434.68761795 422.53427673 -434.12808929 421.98789551 -433.55160522 421.42495728 C-432.94007599 420.83790009 -432.32854675 420.2508429 -431.69848633 419.64599609 C-431.05285233 419.01773926 -430.40721832 418.38948242 -429.74201965 417.7421875 C-428.34157695 416.37945478 -426.93917246 415.01873589 -425.53504372 413.65980148 C-421.77761995 410.01605234 -418.04882895 406.34312063 -414.31445312 402.67578125 C-409.56183113 398.01297109 -404.80132876 393.35900805 -400.01293945 388.73291016 C-396.14179108 384.99149354 -392.29813578 381.22369627 -388.47125816 377.43703079 C-387.00943519 376.00052641 -385.53771566 374.57402069 -384.05607033 373.15797043 C-381.98228237 371.17361557 -379.94538046 369.15732437 -377.91333008 367.13037109 C-377.29572815 366.55545929 -376.67812622 365.98054749 -376.04180908 365.38821411 C-373.51604155 362.80638714 -372.08493458 361.15491946 -371.81427574 357.47456741 C-372.29455469 351.91178692 -373.87845885 347.12200649 -376 342 C-378.19411167 335.99446755 -379.81299986 329.92686499 -381.25390625 323.69921875 C-381.93811127 321.2239011 -382.8552175 319.28055096 -384 317 C-384.4780755 315.23968731 -384.91133155 313.46691587 -385.3125 311.6875 C-388.62905335 298.07370493 -393.59265424 286.13350465 -400.125 273.8125 C-400.88674003 272.35594405 -401.64771815 270.8989894 -402.40795898 269.44165039 C-406.94735029 260.76603442 -411.59254348 252.15017665 -416.3671875 243.6015625 C-419.63446687 237.73878082 -422.6848251 231.78672162 -425.62915039 225.75561523 C-427.00207574 222.66956273 -427.00207574 222.66956273 -429 220 C-429.93264936 213.84062816 -426.99673206 209.73494399 -424 204.625 C-422.97544274 202.8229894 -421.9533284 201.01958778 -420.93359375 199.21484375 C-420.42940918 198.32651855 -419.92522461 197.43819336 -419.40576172 196.52294922 C-417.51473307 193.12908154 -415.76957774 189.67663157 -414.0625 186.1875 C-410.74798162 179.45722993 -407.33371648 172.7823511 -403.875 166.125 C-403.38394775 165.17391357 -402.89289551 164.22282715 -402.38696289 163.24291992 C-399.97931719 158.62083715 -397.48665696 154.11656694 -394.73828125 149.6875 C-392.56926555 146.12300898 -391.12423963 143.00853938 -390.3125 138.875 C-389.57762272 135.50823665 -388.84744354 132.32368924 -387.5625 129.125 C-386.1679732 125.62061919 -385.13801042 122.07050523 -384.125 118.4375 C-382.75800014 113.54943989 -381.26785489 108.73969122 -379.625 103.9375 C-377.21746215 96.86304264 -375.17026853 89.71231315 -373.23095703 82.49584961 C-372.53678212 79.97952576 -371.77691178 77.49186891 -371 75 C-370.7848877 74.17725586 -370.56977539 73.35451172 -370.34814453 72.50683594 C-369.11008145 68.72227582 -368.13335468 66.60052642 -364.53540039 64.6940918 C-361.38398932 63.62839848 -358.2291689 62.79812112 -355 62 C-352.82694013 61.33385173 -350.65762102 60.65538005 -348.4921875 59.96484375 C-346.28690672 59.28760072 -344.08117466 58.61182547 -341.875 57.9375 C-340.77285156 57.59912109 -339.67070312 57.26074219 -338.53515625 56.91210938 C-332.77990466 55.14730209 -327.01900144 53.40281788 -321.25195312 51.67700195 C-317.93255426 50.67909507 -314.62194285 49.65552661 -311.3125 48.625 C-310.09175781 48.24601562 -308.87101563 47.86703125 -307.61328125 47.4765625 C-306.58025879 47.14495117 -306.58025879 47.14495117 -305.52636719 46.80664062 C-303.5523867 46.17637086 -301.57264205 45.56414678 -299.59082031 44.95898438 C-290.87381386 42.20765824 -283.12027621 38.74097127 -275.125 34.25 C-272.7103778 32.91964935 -270.29066011 31.59867587 -267.87109375 30.27734375 C-267.24537979 29.93422653 -266.61966583 29.59110931 -265.97499084 29.2375946 C-257.41615592 24.55955618 -248.71741021 20.14930686 -240.03253174 15.71130371 C-238.64740727 15.00333424 -237.26256768 14.29480711 -235.8780365 13.5856781 C-234.04609804 12.64763947 -232.21291448 11.71203357 -230.37963867 10.77661133 C-227.22384504 9.18872108 -227.22384504 9.18872108 -225.26040649 7.85287476 C-222.12488701 5.81778812 -220.25315645 4.99629441 -216.48071289 5.05151367 C-212.77608378 6.06101666 -209.7083703 7.3920398 -206.30859375 9.17578125 C-205.68980347 9.49710022 -205.07101318 9.81841919 -204.43347168 10.1494751 C-202.42933561 11.19371044 -200.4334574 12.25272838 -198.4375 13.3125 C-197.04603307 14.04165753 -195.65418362 14.77008551 -194.26196289 15.49780273 C-185.20901943 20.2432957 -176.22121989 25.10694197 -167.26489258 30.03222656 C-153.52156054 37.58272949 -140.01357785 43.46443301 -125 48.0625 C-122.42809848 48.8506446 -119.85637834 49.6393335 -117.28515625 50.4296875 C-116.6193605 50.63420029 -115.95356476 50.83871307 -115.26759338 51.04942322 C-110.95010649 52.38151801 -106.64743423 53.75413131 -102.35189819 55.15534973 C-99.42673038 56.1092436 -96.49822204 57.0526543 -93.56958008 57.99581909 C-92.15250971 58.4555394 -90.73711528 58.92045941 -89.32348633 59.39065552 C-87.34343467 60.04861336 -85.35827139 60.68816728 -83.37109375 61.32421875 C-82.23599365 61.69635498 -81.10089355 62.06849121 -79.93139648 62.4519043 C-77.09874785 63.22028804 -77.09874785 63.22028804 -74.81762695 62.30834961 C-72.87454418 60.9096954 -71.22467531 59.45105818 -69.546875 57.7421875 C-68.928125 57.11699219 -68.309375 56.49179688 -67.671875 55.84765625 C-66.72054687 54.87119141 -66.72054687 54.87119141 -65.75 53.875 C-65.1003125 53.21628906 -64.450625 52.55757812 -63.78125 51.87890625 C-62.18288273 50.25703357 -60.58938103 48.6306719 -59 47 C-63.96194855 41.00499003 -69.3476624 35.53572963 -74.875 30.0625 C-76.19371094 28.75055664 -76.19371094 28.75055664 -77.5390625 27.41210938 C-79.6904346 25.27242952 -81.84411792 23.13513403 -84 21 C-83.67 20.34 -83.34 19.68 -83 19 C-80.80704712 18.33064377 -78.57952119 17.77396275 -76.34375 17.265625 C-75.6581752 17.10715591 -74.9726004 16.94868683 -74.26625061 16.78541565 C-72.01248581 16.26609233 -69.75628886 15.75823354 -67.5 15.25 C-65.94240903 14.89246824 -64.38503681 14.53398223 -62.82788086 14.17456055 C-59.69310973 13.45153672 -56.55758474 12.73194504 -53.42138672 12.01513672 C-47.45991757 10.64984503 -41.50955918 9.23915046 -35.5625 7.8125 C-34.56702148 7.5748291 -33.57154297 7.3371582 -32.54589844 7.09228516 C-25.30198034 5.34945105 -18.09449992 3.48296262 -10.92016602 1.47192383 C-7.19566394 0.45354156 -3.86961743 -0.25899014 0 0 Z M-223.9375 17.875 C-224.56172852 18.19106201 -225.18595703 18.50712402 -225.82910156 18.83276367 C-230.65585457 21.28807599 -235.45617834 23.79363129 -240.25 26.3125 C-241.01739502 26.7137207 -241.78479004 27.11494141 -242.57543945 27.52832031 C-247.34737892 30.03535259 -252.08690863 32.59366834 -256.80258179 35.20457458 C-273.05687666 44.19086104 -288.65030653 52.11194567 -306.65332031 57.05322266 C-310.47789532 58.13519682 -314.26578317 59.31184803 -318.0546875 60.51171875 C-318.74904404 60.73132767 -319.44340057 60.95093658 -320.15879822 61.17720032 C-321.56971673 61.62398184 -322.9805187 62.07113154 -324.39120483 62.51864624 C-341.05534324 67.80406789 -341.05534324 67.80406789 -347.70703125 69.5 C-348.50625 69.70858643 -349.30546875 69.91717285 -350.12890625 70.13208008 C-352.11748113 70.63789491 -354.11504487 71.10803205 -356.11328125 71.57421875 C-360.42706665 73.70484347 -361.15536248 77.57677388 -362.66090393 81.89610291 C-363.33035329 83.91641945 -363.97009287 85.9440624 -364.6015625 87.9765625 C-364.83924347 88.73181213 -365.07692444 89.48706177 -365.32180786 90.26519775 C-365.82956217 91.88053407 -366.33565388 93.49639379 -366.84020996 95.11273193 C-367.63553903 97.65873751 -368.4368011 100.20281477 -369.23925781 102.74658203 C-371.71604179 110.6122931 -374.16000473 118.48541125 -376.5078125 126.390625 C-376.89341463 127.67636039 -377.27931157 128.9620074 -377.66552734 130.24755859 C-378.35819374 132.5644513 -379.03938768 134.88482549 -379.70556641 137.20947266 C-382.45647453 146.37684967 -386.55274189 154.56871921 -391 163 C-391.72345858 164.38338443 -392.44676561 165.76684813 -393.16992188 167.15039062 C-395.00996692 170.65903759 -396.86624291 174.1588281 -398.72814941 177.65591431 C-399.9041155 179.86725001 -401.07516661 182.0811307 -402.24511719 184.2956543 C-405.60099378 190.64215878 -408.96697142 196.97802733 -412.4609375 203.25 C-412.94320801 204.1268042 -413.42547852 205.0036084 -413.92236328 205.90698242 C-414.77798614 207.45726782 -415.64776835 208.99986366 -416.53466797 210.5324707 C-418.64367077 214.32850703 -418.64367077 214.32850703 -418.453125 218.53515625 C-417.97359375 219.34855469 -417.4940625 220.16195312 -417 221 C-416.4740625 222.09570312 -415.948125 223.19140625 -415.40625 224.3203125 C-414.77355982 225.58990405 -414.13796239 226.85804951 -413.5 228.125 C-412.9755127 229.16998657 -412.9755127 229.16998657 -412.44042969 230.23608398 C-408.95307711 237.15031923 -405.3422091 243.99808894 -401.72265625 250.84375 C-398.69322026 256.57408854 -395.68805795 262.31699749 -392.6875 268.0625 C-392.19604492 269.0016626 -391.70458984 269.9408252 -391.19824219 270.90844727 C-390.72418945 271.81651123 -390.25013672 272.7245752 -389.76171875 273.66015625 C-389.34881592 274.45043213 -388.93591309 275.24070801 -388.51049805 276.05493164 C-387.76280151 277.51274048 -387.76280151 277.51274048 -387 279 C-386.42253525 280.08453461 -386.42253525 280.08453461 -385.83340454 281.190979 C-382.73375491 287.1457363 -380.50848147 293.0423611 -378.625 299.4765625 C-378.33318848 300.44548431 -378.04137695 301.41440613 -377.74072266 302.41268921 C-376.81858195 305.48097178 -375.90892381 308.55277937 -375 311.625 C-374.39148438 313.66041337 -373.7821154 315.69557182 -373.171875 317.73046875 C-372.27961214 320.70654468 -371.38804684 323.68280752 -370.50024414 326.66021729 C-368.07270385 334.79663282 -365.56205189 342.90503768 -363 351 C-356.55070225 345.68520087 -350.6885104 339.82573145 -344.79408264 333.91433716 C-343.66218396 332.782875 -342.53006537 331.6516328 -341.39774698 330.52059066 C-338.2986853 327.4237581 -335.20273874 324.32382781 -332.10730445 321.22337008 C-328.76428855 317.87602708 -325.41837427 314.53158341 -322.07281494 311.18678284 C-316.28070813 305.39519983 -310.49043195 299.60179183 -304.70140266 293.80713272 C-296.33148217 285.42907779 -287.95879471 277.05379256 -279.58543401 268.67917608 C-265.99957861 255.09113321 -252.41595688 241.50085968 -238.83374023 227.90917969 C-225.64155398 214.70781141 -212.4483156 201.50749606 -199.25366211 188.30859375 C-198.44005138 187.4947203 -197.62644065 186.68084685 -196.78817505 185.84231056 C-192.70643526 181.75926571 -188.62467478 177.67624153 -184.54290402 173.59322762 C-150.69206259 139.7320231 -116.84484624 105.86719675 -83 72 C-86.00282862 69.99811426 -88.24156164 69.21273064 -91.68286133 68.21923828 C-92.85291214 67.87772736 -94.02296295 67.53621643 -95.22846985 67.18435669 C-95.85495234 67.00359715 -96.48143482 66.8228376 -97.12690163 66.63660049 C-99.80069334 65.86215765 -102.46879977 65.06895305 -105.13740826 64.27686882 C-110.09232251 62.80630204 -115.04878675 61.3420838 -120.01586914 59.91308594 C-137.02669938 55.00947665 -152.55441259 49.52105105 -167.81588745 40.28466797 C-171.10564315 38.34967439 -174.505152 36.66464 -177.9375 35 C-184.69422096 31.67483592 -191.38516264 28.23190842 -198.0625 24.75 C-199.03888428 24.24210937 -200.01526855 23.73421875 -201.02124023 23.2109375 C-205.07921944 21.09098775 -209.11093009 18.96050171 -213.05859375 16.640625 C-217.74348011 14.02754098 -219.31168186 15.53240365 -223.9375 17.875 Z M-73.91315466 84.78895617 C-74.76031072 85.63649194 -75.60746678 86.48402772 -76.48029423 87.3572464 C-77.18860938 88.06383079 -77.18860938 88.06383079 -77.91123393 88.78468961 C-79.51394137 90.38472227 -81.1130183 91.98833649 -82.71217346 93.59191895 C-83.86364211 94.74295207 -85.01533026 95.89376566 -86.16722053 97.04437685 C-89.34825739 100.22316509 -92.52614665 103.40508427 -95.70355976 106.58749413 C-99.12440545 110.01263892 -102.54812049 113.43491333 -105.97149658 116.85752869 C-111.90776547 122.79327199 -117.84219366 128.73085053 -123.77539253 134.66966248 C-132.35391556 143.25629591 -140.93518279 151.84018248 -149.51713275 160.42339069 C-163.43907727 174.34752645 -177.35878493 188.27389615 -191.27709961 202.20166016 C-204.801322 215.7350548 -218.32658925 229.2674038 -231.85327148 242.79833984 C-232.68638053 243.63171161 -233.51948957 244.46508338 -234.37784434 245.32370883 C-238.55711241 249.50428189 -242.73640111 253.68483431 -246.91570008 257.86537647 C-281.61366756 292.57371882 -316.30801076 327.28568229 -351 362 C-347.73381926 364.58745415 -345.28113093 365.61716303 -341.1875 366.5 C-337.71424128 367.30508788 -334.43919278 368.09184804 -331.1875 369.5625 C-325.56126643 372.09982102 -319.52382133 373.39289125 -313.5625 374.9375 C-308.22969114 376.34015002 -303.12537724 377.96752282 -298 380 C-296.52308819 380.48607224 -295.04378185 380.96491265 -293.5625 381.4375 C-282.93855686 384.97368261 -273.10961308 390.44137984 -263.1875 395.5625 C-262.41153473 395.96195831 -261.63556946 396.36141663 -260.83609009 396.77297974 C-250.04263581 402.33139482 -239.32124483 407.99591778 -228.73046875 413.93359375 C-228.08899902 414.2879248 -227.4475293 414.64225586 -226.78662109 415.00732422 C-225.11465613 415.93629519 -223.45710393 416.89107428 -221.80078125 417.84765625 C-218.47307534 419.21679606 -217.412793 418.94893051 -214 418 C-212.07447401 417.13620942 -210.17871202 416.20454112 -208.30859375 415.2265625 C-207.20878174 414.65437988 -206.10896973 414.08219727 -204.97583008 413.49267578 C-203.79625753 412.870362 -202.61681705 412.24779784 -201.4375 411.625 C-200.2198154 410.9877931 -199.00195887 410.35091465 -197.78393555 409.71435547 C-189.75983892 405.50908162 -181.80936742 401.17660032 -173.88891602 396.77954102 C-149.09681644 383.05969102 -123.20415132 375.42816735 -96.20703125 367.20947266 C-92.92138974 366.20893999 -89.63642435 365.20621393 -86.3515625 364.203125 C-85.34026276 363.89586487 -84.32896301 363.58860474 -83.28701782 363.27203369 C-82.3577951 362.9879364 -81.42857239 362.70383911 -80.47119141 362.41113281 C-79.65341217 362.16196106 -78.83563293 361.91278931 -77.99307251 361.65606689 C-75.95879985 361.03987121 -75.95879985 361.03987121 -74 360 C-71.05667491 353.64861429 -69.34096563 346.82478524 -67.80859375 340.01953125 C-66.9981961 336.9932637 -65.92425366 334.13270631 -64.80053711 331.21118164 C-63.32883358 327.14615607 -62.21880133 322.97594426 -61.0625 318.8125 C-60.53742047 316.94894739 -60.0113804 315.08566515 -59.484375 313.22265625 C-59.23107422 312.32691895 -58.97777344 311.43118164 -58.71679688 310.50830078 C-57.23185323 305.31200956 -55.65028016 300.14617976 -54 295 C-53.722771 294.04734253 -53.722771 294.04734253 -53.43994141 293.07543945 C-51.33492996 286.19653505 -48.10836163 280.02983636 -44.75 273.6875 C-43.83541016 271.94243164 -43.83541016 271.94243164 -42.90234375 270.16210938 C-40.94669548 266.4351197 -38.97552325 262.71648601 -37 259 C-36.66605225 258.37160217 -36.33210449 257.74320435 -35.98803711 257.09576416 C-32.46591269 250.4721593 -28.92786248 243.85717183 -25.375 237.25 C-24.53388672 235.67798828 -24.53388672 235.67798828 -23.67578125 234.07421875 C-22.55570513 232.01944041 -21.40689764 229.98007342 -20.23046875 227.95703125 C-19.40482422 226.52423828 -19.40482422 226.52423828 -18.5625 225.0625 C-18.06878906 224.22847656 -17.57507813 223.39445313 -17.06640625 222.53515625 C-15.43267208 218.65129736 -15.43077138 215.53336251 -16.89526367 211.58837891 C-17.31525635 210.80897949 -17.73524902 210.02958008 -18.16796875 209.2265625 C-18.8801355 207.88356079 -18.8801355 207.88356079 -19.60668945 206.51342773 C-20.12835693 205.56024658 -20.65002441 204.60706543 -21.1875 203.625 C-21.99030396 202.12271851 -21.99030396 202.12271851 -22.80932617 200.59008789 C-24.52609828 197.38592813 -26.26108304 194.1921891 -28 191 C-29.14873664 188.88167261 -30.29717708 186.76318456 -31.4453125 184.64453125 C-33.12041228 181.55569649 -34.79628829 178.46730279 -36.4753418 175.38061523 C-40.48557259 167.99572131 -44.35817973 160.57378555 -48 153 C-48.46921875 152.05511719 -48.9384375 151.11023438 -49.421875 150.13671875 C-52.0933789 144.58156211 -53.8188376 139.22864237 -55.19140625 133.2265625 C-56.25690316 128.97486951 -57.66871805 124.8677126 -59.08935547 120.72338867 C-60.57081558 116.36985785 -61.88808537 111.99359266 -63.125 107.5625 C-64.32652228 103.26307691 -65.63206456 99.10165001 -67.2734375 94.953125 C-68.72930983 91.0394897 -69.84143655 87.00977988 -71 83 C-72.31480708 82.88616658 -72.31480708 82.88616658 -73.91315466 84.78895617 Z " fill="#070707" transform="translate(467,33)"/>
</svg>
